<svg version="1.2" baseProfile="tiny-ps" xmlns="http://www.w3.org/2000/svg" viewBox="0 0 180 31" width="180" height="31">
	<title>Header</title>
	<style>
		tspan { white-space:pre }
		.s0 { fill: #ffffff } 
		.t1 { font-size: 15px;line-height: 15px;fill: #ffffff;font-weight: 400;font-family: "Raleway-Regular", "Raleway" } 
		.t2 { font-size: 15px;line-height: 15px;fill: #ffffff;font-weight: 800;font-family: "Raleway-ExtraBold", "Raleway" } 
	</style>
	<g id="Header">
		<g id="Logo">
			<path id="Shape 1" class="s0" d="m25.66 4.32c0.37 0.01 0.75 0.03 1.12 0.04c0.31 0 0.72-0.03 0.96 0.04c0.51 0 1.01 0 1.52 0c0.4 0.14 0.71 0.45 0.76 0.96c-0.01 0-0.03 0-0.04 0c-0.01 0.08-0.03 0.16-0.04 0.24c-0.01 0-0.03 0-0.04 0c0 0.04 0 0.08 0 0.12c-0.03 0.01-0.05 0.03-0.08 0.04c0 0.03 0 0.05 0 0.08c-0.32 0.31-0.64 0.61-0.96 0.92c-0.93 0.95-1.86 1.89-2.8 2.84c-1.42 0-2.85 0-4.27 0c-0.32 0.33-0.64 0.67-0.96 1c-0.07 0.05-0.13 0.11-0.2 0.16c-0.28 0.38-0.63 0.67-0.96 1c-0.44 0.45-0.88 0.91-1.32 1.36c-0.27 0.19-0.49 0.41-0.72 0.64c-0.68 0.69-1.36 1.39-2.04 2.08c-0.04 0-0.08 0-0.12 0c-0.01 0.03-0.03 0.05-0.04 0.08c-0.07 0.01-0.13 0.03-0.2 0.04c0 0.01 0 0.03 0 0.04c-0.23 0.07-0.65-0.09-0.76-0.16c-0.07-0.08-0.13-0.16-0.2-0.24c-0.03-0.01-0.05-0.03-0.08-0.04c-0.01-0.05-0.03-0.11-0.04-0.16c-0.01 0-0.03 0-0.04 0c0-0.03 0-0.05 0-0.08c-0.01 0-0.03 0-0.04 0c0-0.03 0-0.05 0-0.08c-0.01 0-0.03 0-0.04 0c0-0.16 0-0.32 0-0.48c0.01 0 0.03 0 0.04 0c0.01-0.05 0.03-0.11 0.04-0.16c0.01 0 0.03 0 0.04 0c0-0.04 0-0.08 0-0.12c0.03-0.01 0.05-0.03 0.08-0.04c0-0.03 0-0.05 0-0.08c0.01 0 0.03 0 0.04 0c0.06-0.07 0.09-0.1 0.12-0.2c0.03 0 0.05 0 0.08 0c0.03-0.12 0.08-0.17 0.2-0.2c0-0.03 0-0.05 0-0.08c0.03 0 0.05 0 0.08 0c0-0.03 0-0.05 0-0.08c0.03 0 0.05 0 0.08 0c0-0.03 0-0.05 0-0.08c0.03 0 0.05 0 0.08 0c0-0.03 0-0.05 0-0.08c0.03 0 0.05 0 0.08 0c0.03-0.11 0.01-0.09 0.12-0.12c0-0.03 0-0.05 0-0.08c0.03 0 0.05 0 0.08 0c0-0.03 0-0.05 0-0.08c0.03 0 0.05 0 0.08 0c0-0.03 0-0.05 0-0.08c0.03 0 0.05 0 0.08 0c0-0.03 0-0.05 0-0.08c0.03 0 0.05 0 0.08 0c0-0.03 0-0.05 0-0.08c0.03 0 0.05 0 0.08 0c0.03-0.11 0.01-0.09 0.12-0.12c0-0.03 0-0.05 0-0.08c0.03 0 0.05 0 0.08 0c0-0.03 0-0.05 0-0.08c0.03 0 0.05 0 0.08 0c0-0.03 0-0.05 0-0.08c0.03 0 0.05 0 0.08 0c0-0.03 0-0.05 0-0.08c0.03 0 0.05 0 0.08 0c0-0.03 0-0.05 0-0.08c0.03 0 0.05 0 0.08 0c0.03-0.11 0.01-0.09 0.12-0.12c0-0.03 0-0.05 0-0.08c0.03 0 0.05 0 0.08 0c0-0.03 0-0.05 0-0.08c0.03 0 0.05 0 0.08 0c0-0.03 0-0.05 0-0.08c0.03 0 0.05 0 0.08 0c0-0.03 0-0.05 0-0.08c0.03 0 0.05 0 0.08 0c0-0.03 0-0.05 0-0.08c0.03 0 0.05 0 0.08 0c0.03-0.11 0.01-0.09 0.12-0.12c0-0.03 0-0.05 0-0.08c0.03 0 0.05 0 0.08 0c0-0.03 0-0.05 0-0.08c0.03 0 0.05 0 0.08 0c0.05-0.2 0.42-0.46 0.56-0.6c0-0.01 0-0.03 0-0.04c0.44-0.43 0.88-0.85 1.32-1.28c0.14-0.14 0.36-0.47 0.56-0.52c0-0.03 0-0.05 0-0.08c0.03 0 0.05 0 0.08 0c0-0.03 0-0.05 0-0.08c0.03 0 0.05 0 0.08 0c0-0.03 0-0.05 0-0.08c0.03 0 0.05 0 0.08 0c0.03-0.11 0.01-0.09 0.12-0.12c0-0.03 0-0.05 0-0.08c0.03 0 0.05 0 0.08 0c0-0.03 0-0.05 0-0.08c0.03 0 0.05 0 0.08 0c0-0.03 0-0.05 0-0.08c0.03 0 0.05 0 0.08 0c0-0.03 0-0.05 0-0.08c0.03 0 0.05 0 0.08 0c0-0.03 0-0.05 0-0.08c0.11-0.03 0.09-0.01 0.12-0.12c0.03 0 0.05 0 0.08 0c0-0.03 0-0.05 0-0.08c0.03 0 0.05 0 0.08 0c0-0.03 0-0.05 0-0.08c0.03 0 0.05 0 0.08 0c0-0.03 0-0.05 0-0.08c0.03 0 0.05 0 0.08 0c0.08-0.44 0.04-1.05 0.04-1.56c0-0.93 0-1.87 0-2.8c0.1-0.06 0.13-0.15 0.2-0.2c0.34-0.25 0.59-0.55 0.88-0.84c0.68-0.67 1.36-1.33 2.04-2c0.19-0.2 0.37-0.4 0.56-0.6c0.03 0 0.05 0 0.08 0c0.01-0.03 0.03-0.05 0.04-0.08c0.03 0 0.05 0 0.08 0c0.01-0.03 0.03-0.05 0.04-0.08c0.07-0.04 0.38-0.12 0.52-0.08c0 0.01 0 0.03 0 0.04c0.04 0 0.08 0 0.12 0c0 0.01 0 0.03 0 0.04c0.03 0 0.05 0 0.08 0c0.01 0.03 0.03 0.05 0.04 0.08c0.04 0 0.08 0 0.12 0c0 0.01 0 0.03 0 0.04c0.08 0.07 0.16 0.13 0.24 0.2c0 0.03 0 0.05 0 0.08c0.01 0 0.03 0 0.04 0c0 0.03 0 0.05 0 0.08c0.01 0 0.03 0 0.04 0c0 0.04 0 0.08 0 0.12c0.01 0 0.03 0 0.04 0c0 0.23 0 0.45 0 0.68c0.07 0.25-0.03 0.67 0.04 0.92c0.01 0 0.03 0 0.04 0c0 0.68 0 1.36 0 2.04zm-7.35 1.76c-0.12-0.04-0.24-0.08-0.36-0.12c0-0.01 0-0.03 0-0.04c-0.08-0.01-0.16-0.03-0.24-0.04c0-0.01 0-0.03 0-0.04c-0.03 0-0.05 0-0.08 0c0-0.01 0-0.03 0-0.04c-0.08-0.01-0.16-0.03-0.24-0.04c0-0.01 0-0.03 0-0.04c-0.04 0-0.08 0-0.12 0c0-0.01 0-0.03 0-0.04c-0.09-0.01-0.19-0.03-0.28-0.04c0-0.01 0-0.03 0-0.04c-0.09-0.01-0.19-0.03-0.28-0.04c0-0.01 0-0.03 0-0.04c-0.52-0.09-1.04-0.19-1.56-0.28c-0.17 0-0.35 0-0.52 0c0-0.01 0-0.03 0-0.04c-0.21-0.06-1.12 0-1.28 0.04c-0.17 0-0.35 0-0.52 0c0 0.01 0 0.03 0 0.04c-0.11 0-0.21 0-0.32 0c0 0.01 0 0.03 0 0.04c-0.09 0-0.19 0-0.28 0c0 0.01 0 0.03 0 0.04c-0.07 0-0.13 0-0.2 0c0 0.01 0 0.03 0 0.04c-0.08 0-0.16 0-0.24 0c0 0.01 0 0.03 0 0.04c-0.05 0-0.11 0-0.16 0c0 0.01 0 0.03 0 0.04c-0.12 0.01-0.24 0.03-0.36 0.04c-0.48 0.16-0.96 0.32-1.44 0.48c0 0.01 0 0.03 0 0.04c-0.05 0.01-0.11 0.03-0.16 0.04c0 0.01 0 0.03 0 0.04c-0.03 0-0.05 0-0.08 0c0 0.01 0 0.03 0 0.04c-0.04 0-0.08 0-0.12 0c0 0.01 0 0.03 0 0.04c-0.08 0.03-0.16 0.05-0.24 0.08c0 0.01 0 0.03 0 0.04c-0.03 0-0.05 0-0.08 0c0 0.01 0 0.03 0 0.04c-0.03 0-0.05 0-0.08 0c0 0.01 0 0.03 0 0.04c-0.08 0.03-0.16 0.05-0.24 0.08c-0.01 0.03-0.03 0.05-0.04 0.08c-0.08 0.03-0.16 0.05-0.24 0.08c-0.01 0.03-0.03 0.05-0.04 0.08c-0.05 0.01-0.11 0.03-0.16 0.04c-0.01 0.03-0.03 0.05-0.04 0.08c-0.05 0.01-0.11 0.03-0.16 0.04c0 0.01 0 0.03 0 0.04c-0.04 0.01-0.08 0.03-0.12 0.04c-0.01 0.03-0.03 0.05-0.04 0.08c-0.03 0-0.05 0-0.08 0c-0.03 0.04-0.05 0.08-0.08 0.12c-0.03 0-0.05 0-0.08 0c-0.01 0.03-0.03 0.05-0.04 0.08c-0.03 0-0.05 0-0.08 0c-0.03 0.04-0.05 0.08-0.08 0.12c-0.03 0-0.05 0-0.08 0c-0.03 0.04-0.05 0.08-0.08 0.12c-0.03 0-0.05 0-0.08 0c-0.04 0.05-0.08 0.11-0.12 0.16c-0.03 0-0.05 0-0.08 0c-0.07 0.08-0.13 0.16-0.2 0.24c-0.03 0-0.05 0-0.08 0c-0.09 0.11-0.19 0.21-0.28 0.32c-0.23 0.21-0.45 0.43-0.68 0.64c0 0.03 0 0.05 0 0.08c-0.08 0.07-0.16 0.13-0.24 0.2c0 0.03 0 0.05 0 0.08c-0.05 0.04-0.11 0.08-0.16 0.12c0 0.03 0 0.05 0 0.08c-0.04 0.03-0.08 0.05-0.12 0.08c0 0.03 0 0.05 0 0.08c-0.04 0.03-0.08 0.05-0.12 0.08c0 0.03 0 0.05 0 0.08c-0.03 0.01-0.05 0.03-0.08 0.04c0 0.03 0 0.05 0 0.08c-0.04 0.03-0.08 0.05-0.12 0.08c0 0.03 0 0.05 0 0.08c-0.03 0.01-0.05 0.03-0.08 0.04c0 0.03 0 0.05 0 0.08c-0.03 0.01-0.05 0.03-0.08 0.04c-0.01 0.05-0.03 0.11-0.04 0.16c-0.03 0.01-0.05 0.03-0.08 0.04c-0.01 0.05-0.03 0.11-0.04 0.16c-0.03 0.01-0.05 0.03-0.08 0.04c-0.03 0.08-0.05 0.16-0.08 0.24c-0.03 0.01-0.05 0.03-0.08 0.04c0 0.03 0 0.05 0 0.08c-0.01 0-0.03 0-0.04 0c0 0.03 0 0.05 0 0.08c-0.01 0-0.03 0-0.04 0c0 0.03 0 0.05 0 0.08c-0.01 0-0.03 0-0.04 0c0 0.03 0 0.05 0 0.08c-0.01 0-0.03 0-0.04 0c0 0.03 0 0.05 0 0.08c-0.01 0-0.03 0-0.04 0c-0.03 0.08-0.05 0.16-0.08 0.24c-0.01 0-0.03 0-0.04 0c0 0.04 0 0.08 0 0.12c-0.01 0-0.03 0-0.04 0c0 0.03 0 0.05 0 0.08c-0.01 0-0.03 0-0.04 0c0 0.03 0 0.05 0 0.08c-0.01 0-0.03 0-0.04 0c0 0.03 0 0.05 0 0.08c-0.01 0-0.03 0-0.04 0c0 0.04 0 0.08 0 0.12c-0.01 0-0.03 0-0.04 0c0 0.03 0 0.05 0 0.08c-0.01 0-0.03 0-0.04 0c-0.01 0.08-0.03 0.16-0.04 0.24c-0.01 0-0.03 0-0.04 0c0 0.03 0 0.05 0 0.08c-0.01 0-0.03 0-0.04 0c-0.13 0.48-0.27 0.96-0.4 1.44c-0.03 0.24-0.05 0.48-0.08 0.72c-0.01 0-0.03 0-0.04 0c0 0.11 0 0.21 0 0.32c-0.01 0-0.03 0-0.04 0c0 0.17 0 0.35 0 0.52c-0.01 0-0.03 0-0.04 0c-0.06 0.21 0 1.12 0.04 1.28c0 0.17 0 0.35 0 0.52c0.01 0 0.03 0 0.04 0c0 0.11 0 0.21 0 0.32c0.01 0 0.03 0 0.04 0c0 0.09 0 0.19 0 0.28c0.01 0 0.03 0 0.04 0c0 0.07 0 0.13 0 0.2c0.01 0 0.03 0 0.04 0c0 0.08 0 0.16 0 0.24c0.01 0 0.03 0 0.04 0c0 0.05 0 0.11 0 0.16c0.01 0 0.03 0 0.04 0c0 0.07 0 0.13 0 0.2c0.01 0 0.03 0 0.04 0c0 0.05 0 0.11 0 0.16c0.01 0 0.03 0 0.04 0c0.01 0.09 0.03 0.19 0.04 0.28c0.01 0 0.03 0 0.04 0c0 0.04 0 0.08 0 0.12c0.01 0 0.03 0 0.04 0c0 0.05 0 0.11 0 0.16c0.01 0 0.03 0 0.04 0c0 0.04 0 0.08 0 0.12c0.01 0 0.03 0 0.04 0c0 0.04 0 0.08 0 0.12c0.01 0 0.03 0 0.04 0c0 0.04 0 0.08 0 0.12c0.01 0 0.03 0 0.04 0c0 0.03 0 0.05 0 0.08c0.01 0 0.03 0 0.04 0c0.01 0.08 0.03 0.16 0.04 0.24c0.01 0 0.03 0 0.04 0c0 0.03 0 0.05 0 0.08c0.01 0 0.03 0 0.04 0c0 0.04 0 0.08 0 0.12c0.01 0 0.03 0 0.04 0c0.01 0.05 0.03 0.11 0.04 0.16c0.01 0 0.03 0 0.04 0c0 0.03 0 0.05 0 0.08c0.01 0 0.03 0 0.04 0c0 0.04 0 0.08 0 0.12c0.01 0 0.03 0 0.04 0c0.03 0.08 0.05 0.16 0.08 0.24c0.01 0 0.03 0 0.04 0c0 0.03 0 0.05 0 0.08c0.01 0 0.03 0 0.04 0c0 0.03 0 0.05 0 0.08c0.01 0 0.03 0 0.04 0c0.03 0.08 0.05 0.16 0.08 0.24c0.03 0.01 0.05 0.03 0.08 0.04c0.03 0.08 0.05 0.16 0.08 0.24c0.03 0.01 0.05 0.03 0.08 0.04c0.01 0.05 0.03 0.11 0.04 0.16c0.03 0.01 0.05 0.03 0.08 0.04c0.01 0.05 0.03 0.11 0.04 0.16c0.03 0.01 0.05 0.03 0.08 0.04c0 0.03 0 0.05 0 0.08c0.01 0 0.03 0 0.04 0c0.01 0.04 0.03 0.08 0.04 0.12c0.03 0.01 0.05 0.03 0.08 0.04c0 0.03 0 0.05 0 0.08c0.04 0.03 0.08 0.05 0.12 0.08c0 0.03 0 0.05 0 0.08c0.04 0.03 0.08 0.05 0.12 0.08c0 0.03 0 0.05 0 0.08c0.04 0.03 0.08 0.05 0.12 0.08c0 0.03 0 0.05 0 0.08c0.05 0.04 0.11 0.08 0.16 0.12c0 0.03 0 0.05 0 0.08c0.08 0.07 0.16 0.13 0.24 0.2c0 0.03 0 0.05 0 0.08c0.23 0.21 0.45 0.43 0.68 0.64c0.09 0.11 0.19 0.21 0.28 0.32c0.03 0 0.05 0 0.08 0c0.07 0.08 0.13 0.16 0.2 0.24c0.03 0 0.05 0 0.08 0c0.04 0.05 0.08 0.11 0.12 0.16c0.03 0 0.05 0 0.08 0c0.03 0.04 0.05 0.08 0.08 0.12c0.03 0 0.05 0 0.08 0c0.03 0.04 0.05 0.08 0.08 0.12c0.03 0 0.05 0 0.08 0c0.03 0.04 0.05 0.08 0.08 0.12c0.03 0 0.05 0 0.08 0c0.01 0.03 0.03 0.05 0.04 0.08c0.03 0 0.05 0 0.08 0c0.01 0.03 0.03 0.05 0.04 0.08c0.04 0.01 0.08 0.03 0.12 0.04c0 0.01 0 0.03 0 0.04c0.05 0.01 0.11 0.03 0.16 0.04c0.01 0.03 0.03 0.05 0.04 0.08c0.05 0.01 0.11 0.03 0.16 0.04c0.01 0.03 0.03 0.05 0.04 0.08c0.08 0.03 0.16 0.05 0.24 0.08c0.01 0.03 0.03 0.05 0.04 0.08c0.03 0 0.05 0 0.08 0c0 0.01 0 0.03 0 0.04c0.03 0 0.05 0 0.08 0c0 0.01 0 0.03 0 0.04c0.03 0 0.05 0 0.08 0c0 0.01 0 0.03 0 0.04c0.03 0 0.05 0 0.08 0c0 0.01 0 0.03 0 0.04c0.03 0 0.05 0 0.08 0c0 0.01 0 0.03 0 0.04c0.03 0 0.05 0 0.08 0c0 0.01 0 0.03 0 0.04c0.08 0.03 0.16 0.05 0.24 0.08c0 0.01 0 0.03 0 0.04c0.07 0.01 0.13 0.03 0.2 0.04c0 0.01 0 0.03 0 0.04c0.03 0 0.05 0 0.08 0c0 0.01 0 0.03 0 0.04c0.04 0 0.08 0 0.12 0c0 0.01 0 0.03 0 0.04c0.03 0 0.05 0 0.08 0c0 0.01 0 0.03 0 0.04c0.08 0.01 0.16 0.03 0.24 0.04c0 0.01 0 0.03 0 0.04c0.03 0 0.05 0 0.08 0c0 0.01 0 0.03 0 0.04c0.12 0.03 0.24 0.05 0.36 0.08c0 0.01 0 0.03 0 0.04c0.05 0 0.11 0 0.16 0c0 0.01 0 0.03 0 0.04c0.04 0 0.08 0 0.12 0c0 0.01 0 0.03 0 0.04c0.09 0.01 0.19 0.03 0.28 0.04c0 0.01 0 0.03 0 0.04c0.05 0 0.11 0 0.16 0c0 0.01 0 0.03 0 0.04c0.12 0.01 0.24 0.03 0.36 0.04c0 0.01 0 0.03 0 0.04c0.08 0 0.16 0 0.24 0c0 0.01 0 0.03 0 0.04c0.07 0 0.13 0 0.2 0c0 0.01 0 0.03 0 0.04c0.09 0 0.19 0 0.28 0c0 0.01 0 0.03 0 0.04c0.28 0.01 0.56 0.03 0.84 0.04c0 0.01 0 0.03 0 0.04c0.21 0.06 1.12 0 1.28-0.04c0.28-0.01 0.56-0.03 0.84-0.04c0-0.01 0-0.03 0-0.04c0.09 0 0.19 0 0.28 0c0-0.01 0-0.03 0-0.04c0.07 0 0.13 0 0.2 0c0-0.01 0-0.03 0-0.04c0.08 0 0.16 0 0.24 0c0-0.01 0-0.03 0-0.04c0.05 0 0.11 0 0.16 0c0-0.01 0-0.03 0-0.04c0.12-0.01 0.24-0.03 0.36-0.04c0-0.01 0-0.03 0-0.04c0.04 0 0.08 0 0.12 0c0-0.01 0-0.03 0-0.04c0.05 0 0.11 0 0.16 0c0-0.01 0-0.03 0-0.04c0.04 0 0.08 0 0.12 0c0-0.01 0-0.03 0-0.04c0.05 0 0.11 0 0.16 0c0-0.01 0-0.03 0-0.04c0.04 0 0.08 0 0.12 0c0-0.01 0-0.03 0-0.04c0.04 0 0.08 0 0.12 0c0-0.01 0-0.03 0-0.04c0.04 0 0.08 0 0.12 0c0-0.01 0-0.03 0-0.04c0.03 0 0.05 0 0.08 0c0-0.01 0-0.03 0-0.04c0.08-0.01 0.16-0.03 0.24-0.04c0-0.01 0-0.03 0-0.04c0.03 0 0.05 0 0.08 0c0-0.01 0-0.03 0-0.04c0.04 0 0.08 0 0.12 0c0-0.01 0-0.03 0-0.04c0.05-0.01 0.11-0.03 0.16-0.04c0-0.01 0-0.03 0-0.04c0.03 0 0.05 0 0.08 0c0-0.01 0-0.03 0-0.04c0.04 0 0.08 0 0.12 0c0-0.01 0-0.03 0-0.04c0.08-0.03 0.16-0.05 0.24-0.08c0-0.01 0-0.03 0-0.04c0.03 0 0.05 0 0.08 0c0-0.01 0-0.03 0-0.04c0.03 0 0.05 0 0.08 0c0-0.01 0-0.03 0-0.04c0.08-0.03 0.16-0.05 0.24-0.08c0.01-0.03 0.03-0.05 0.04-0.08c0.08-0.03 0.16-0.05 0.24-0.08c0.01-0.03 0.03-0.05 0.04-0.08c0.05-0.01 0.11-0.03 0.16-0.04c0.01-0.03 0.03-0.05 0.04-0.08c0.05-0.01 0.11-0.03 0.16-0.04c0.01-0.03 0.03-0.05 0.04-0.08c0.03 0 0.05 0 0.08 0c0-0.01 0-0.03 0-0.04c0.04-0.01 0.08-0.03 0.12-0.04c0.01-0.03 0.03-0.05 0.04-0.08c0.03 0 0.05 0 0.08 0c0.01-0.03 0.03-0.05 0.04-0.08c0.04-0.01 0.08-0.03 0.12-0.04c0.03-0.04 0.05-0.08 0.08-0.12c0.03 0 0.05 0 0.08 0c0.03-0.04 0.05-0.08 0.08-0.12c0.03 0 0.05 0 0.08 0c0.04-0.05 0.08-0.11 0.12-0.16c0.03 0 0.05 0 0.08 0c0.07-0.08 0.13-0.16 0.2-0.24c0.03 0 0.05 0 0.08 0c0.13-0.15 0.27-0.29 0.4-0.44c0.19-0.17 0.37-0.35 0.56-0.52c0-0.03 0-0.05 0-0.08c0.08-0.07 0.16-0.13 0.24-0.2c0-0.03 0-0.05 0-0.08c0.05-0.04 0.11-0.08 0.16-0.12c0-0.03 0-0.05 0-0.08c0.04-0.03 0.08-0.05 0.12-0.08c0-0.03 0-0.05 0-0.08c0.04-0.03 0.08-0.05 0.12-0.08c0.01-0.04 0.03-0.08 0.04-0.12c0.03-0.01 0.05-0.03 0.08-0.04c0-0.03 0-0.05 0-0.08c0.03-0.01 0.05-0.03 0.08-0.04c0.01-0.04 0.03-0.08 0.04-0.12c0.01 0 0.03 0 0.04 0c0-0.03 0-0.05 0-0.08c0.03-0.01 0.05-0.03 0.08-0.04c0.01-0.05 0.03-0.11 0.04-0.16c0.03-0.01 0.05-0.03 0.08-0.04c0.01-0.05 0.03-0.11 0.04-0.16c0.03-0.01 0.05-0.03 0.08-0.04c0.03-0.08 0.05-0.16 0.08-0.24c0.03-0.01 0.05-0.03 0.08-0.04c0-0.03 0-0.05 0-0.08c0.01 0 0.03 0 0.04 0c0-0.03 0-0.05 0-0.08c0.01 0 0.03 0 0.04 0c0-0.03 0-0.05 0-0.08c0.01 0 0.03 0 0.04 0c0-0.03 0-0.05 0-0.08c0.01 0 0.03 0 0.04 0c0-0.03 0-0.05 0-0.08c0.01 0 0.03 0 0.04 0c0-0.03 0-0.05 0-0.08c0.01 0 0.03 0 0.04 0c0.03-0.08 0.05-0.16 0.08-0.24c0.01 0 0.03 0 0.04 0c0-0.04 0-0.08 0-0.12c0.01 0 0.03 0 0.04 0c0.01-0.05 0.03-0.11 0.04-0.16c0.01 0 0.03 0 0.04 0c0.16-0.48 0.32-0.96 0.48-1.44c0.01-0.12 0.03-0.24 0.04-0.36c0.01 0 0.03 0 0.04 0c0-0.05 0-0.11 0-0.16c0.01 0 0.03 0 0.04 0c0-0.08 0-0.16 0-0.24c0.01 0 0.03 0 0.04 0c0-0.07 0-0.13 0-0.2c0.01 0 0.03 0 0.04 0c0.03-0.24 0.05-0.48 0.08-0.72c0-0.13 0-0.27 0-0.4c0.01 0 0.03 0 0.04 0c0.06-0.21 0-1.12-0.04-1.28c-0.01-0.28-0.03-0.56-0.04-0.84c-0.01 0-0.03 0-0.04 0c0-0.09 0-0.19 0-0.28c-0.01 0-0.03 0-0.04 0c0-0.07 0-0.13 0-0.2c-0.01 0-0.03 0-0.04 0c0-0.08 0-0.16 0-0.24c-0.01 0-0.03 0-0.04 0c-0.01-0.12-0.03-0.24-0.04-0.36c-0.01 0-0.03 0-0.04 0c0-0.05 0-0.11 0-0.16c-0.01 0-0.03 0-0.04 0c-0.01-0.09-0.03-0.19-0.04-0.28c-0.01 0-0.03 0-0.04 0c0-0.04 0-0.08 0-0.12c-0.01 0-0.03 0-0.04 0c0-0.05 0-0.11 0-0.16c-0.01 0-0.03 0-0.04 0c0-0.04 0-0.08 0-0.12c-0.01 0-0.03 0-0.04 0c0-0.04 0-0.08 0-0.12c-0.01 0-0.03 0-0.04 0c0-0.04 0-0.08 0-0.12c-0.01 0-0.03 0-0.04 0c0-0.03 0-0.05 0-0.08c-0.01 0-0.03 0-0.04 0c-0.01-0.08-0.03-0.16-0.04-0.24c-0.01 0-0.03 0-0.04 0c-0.04-0.12-0.08-0.24-0.12-0.36c0.83 0 1.92 0.09 2.56-0.12c0.17-0.03 0.35-0.05 0.52-0.08c0-0.01 0-0.03 0-0.04c0.04-0.01 0.08-0.03 0.12-0.04c0-0.01 0-0.03 0-0.04c0.08-0.02 0.05 0.02 0.08 0.04c0.14 0.12 0.12 0.41 0.2 0.6c0.18 0.46 0.25 1.03 0.4 1.52c0.01 0.17 0.03 0.35 0.04 0.52c0.01 0 0.03 0 0.04 0c0 0.09 0 0.19 0 0.28c0.01 0 0.03 0 0.04 0c0 0.13 0 0.27 0 0.4c0.01 0 0.03 0 0.04 0c0 0.17 0 0.35 0 0.52c0.08 0.31 0.09 1.21 0 1.52c0 0.17 0 0.35 0 0.52c-0.01 0-0.03 0-0.04 0c0 0.13 0 0.27 0 0.4c-0.01 0-0.03 0-0.04 0c0 0.09 0 0.19 0 0.28c-0.01 0-0.03 0-0.04 0c0 0.09 0 0.19 0 0.28c-0.06 0.19-0.1 0.46-0.16 0.64c0 0.07 0 0.13 0 0.2c-0.01 0-0.03 0-0.04 0c0 0.05 0 0.11 0 0.16c-0.01 0-0.03 0-0.04 0c0 0.05 0 0.11 0 0.16c-0.01 0-0.03 0-0.04 0c0 0.05 0 0.11 0 0.16c-0.01 0-0.03 0-0.04 0c0 0.05 0 0.11 0 0.16c-0.01 0-0.03 0-0.04 0c0 0.05 0 0.11 0 0.16c-0.01 0-0.03 0-0.04 0c0 0.04 0 0.08 0 0.12c-0.01 0-0.03 0-0.04 0c0 0.04 0 0.08 0 0.12c-0.01 0-0.03 0-0.04 0c0 0.04 0 0.08 0 0.12c-0.01 0-0.03 0-0.04 0c-0.01 0.09-0.03 0.19-0.04 0.28c-0.01 0-0.03 0-0.04 0c0 0.03 0 0.05 0 0.08c-0.01 0-0.03 0-0.04 0c-0.03 0.12-0.05 0.24-0.08 0.36c-0.01 0-0.03 0-0.04 0c0 0.03 0 0.05 0 0.08c-0.01 0-0.03 0-0.04 0c0 0.04 0 0.08 0 0.12c-0.01 0-0.03 0-0.04 0c-0.01 0.07-0.03 0.13-0.04 0.2c-0.01 0-0.03 0-0.04 0c0 0.03 0 0.05 0 0.08c-0.01 0-0.03 0-0.04 0c0 0.04 0 0.08 0 0.12c-0.01 0-0.03 0-0.04 0c-0.03 0.08-0.05 0.16-0.08 0.24c-0.01 0-0.03 0-0.04 0c0 0.03 0 0.05 0 0.08c-0.01 0-0.03 0-0.04 0c0 0.04 0 0.08 0 0.12c-0.01 0-0.03 0-0.04 0c-0.03 0.08-0.05 0.16-0.08 0.24c-0.01 0-0.03 0-0.04 0c0 0.03 0 0.05 0 0.08c-0.01 0-0.03 0-0.04 0c-0.03 0.08-0.05 0.16-0.08 0.24c-0.03 0.01-0.05 0.03-0.08 0.04c0 0.03 0 0.05 0 0.08c-0.01 0-0.03 0-0.04 0c0 0.03 0 0.05 0 0.08c-0.01 0-0.03 0-0.04 0c0 0.03 0 0.05 0 0.08c-0.01 0-0.03 0-0.04 0c0 0.03 0 0.05 0 0.08c-0.03 0.01-0.05 0.03-0.08 0.04c-0.03 0.08-0.05 0.16-0.08 0.24c-0.03 0.01-0.05 0.03-0.08 0.04c0 0.03 0 0.05 0 0.08c-0.03 0.01-0.05 0.03-0.08 0.04c-0.01 0.05-0.03 0.11-0.04 0.16c-0.03 0.01-0.05 0.03-0.08 0.04c0 0.03 0 0.05 0 0.08c-0.03 0.01-0.05 0.03-0.08 0.04c0 0.03 0 0.05 0 0.08c-0.03 0.01-0.05 0.03-0.08 0.04c0 0.03 0 0.05 0 0.08c-0.01 0-0.03 0-0.04 0c-0.01 0.04-0.03 0.08-0.04 0.12c-0.03 0.01-0.05 0.03-0.08 0.04c0 0.03 0 0.05 0 0.08c-0.04 0.03-0.08 0.05-0.12 0.08c0 0.03 0 0.05 0 0.08c-0.04 0.03-0.08 0.05-0.12 0.08c0 0.03 0 0.05 0 0.08c-0.04 0.03-0.08 0.05-0.12 0.08c0 0.03 0 0.05 0 0.08c-0.05 0.04-0.11 0.08-0.16 0.12c0 0.03 0 0.05 0 0.08c-0.05 0.04-0.11 0.08-0.16 0.12c-0.32 0.44-0.66 0.74-1.04 1.12c-0.13 0.15-0.27 0.29-0.4 0.44c-0.03 0-0.05 0-0.08 0c-0.07 0.08-0.13 0.16-0.2 0.24c-0.03 0-0.05 0-0.08 0c-0.05 0.07-0.11 0.13-0.16 0.2c-0.03 0-0.05 0-0.08 0c-0.04 0.05-0.08 0.11-0.12 0.16c-0.03 0-0.05 0-0.08 0c-0.03 0.04-0.05 0.08-0.08 0.12c-0.03 0-0.05 0-0.08 0c-0.03 0.04-0.05 0.08-0.08 0.12c-0.03 0-0.05 0-0.08 0c-0.03 0.04-0.05 0.08-0.08 0.12c-0.03 0-0.05 0-0.08 0c-0.01 0.03-0.03 0.05-0.04 0.08c-0.04 0.01-0.08 0.03-0.12 0.04c0 0.01 0 0.03 0 0.04c-0.03 0-0.05 0-0.08 0c-0.01 0.03-0.03 0.05-0.04 0.08c-0.03 0-0.05 0-0.08 0c-0.01 0.03-0.03 0.05-0.04 0.08c-0.03 0-0.05 0-0.08 0c-0.01 0.03-0.03 0.05-0.04 0.08c-0.05 0.01-0.11 0.03-0.16 0.04c-0.01 0.03-0.03 0.05-0.04 0.08c-0.04 0.01-0.08 0.03-0.12 0.04c0 0.01 0 0.03 0 0.04c-0.03 0-0.05 0-0.08 0c0 0.01 0 0.03 0 0.04c-0.03 0-0.05 0-0.08 0c0 0.01 0 0.03 0 0.04c-0.03 0-0.05 0-0.08 0c-0.01 0.03-0.03 0.05-0.04 0.08c-0.03 0-0.05 0-0.08 0c0 0.01 0 0.03 0 0.04c-0.03 0-0.05 0-0.08 0c0 0.01 0 0.03 0 0.04c-0.03 0-0.05 0-0.08 0c0 0.01 0 0.03 0 0.04c-0.03 0-0.05 0-0.08 0c-0.01 0.03-0.03 0.05-0.04 0.08c-0.08 0.03-0.16 0.05-0.24 0.08c0 0.01 0 0.03 0 0.04c-0.03 0-0.05 0-0.08 0c0 0.01 0 0.03 0 0.04c-0.08 0.03-0.16 0.05-0.24 0.08c0 0.01 0 0.03 0 0.04c-0.04 0-0.08 0-0.12 0c0 0.01 0 0.03 0 0.04c-0.03 0-0.05 0-0.08 0c0 0.01 0 0.03 0 0.04c-0.08 0.03-0.16 0.05-0.24 0.08c0 0.01 0 0.03 0 0.04c-0.04 0-0.08 0-0.12 0c0 0.01 0 0.03 0 0.04c-0.03 0-0.05 0-0.08 0c0 0.01 0 0.03 0 0.04c-0.04 0-0.08 0-0.12 0c0 0.01 0 0.03 0 0.04c-0.03 0-0.05 0-0.08 0c0 0.01 0 0.03 0 0.04c-0.04 0-0.08 0-0.12 0c0 0.01 0 0.03 0 0.04c-0.03 0-0.05 0-0.08 0c0 0.01 0 0.03 0 0.04c-0.12 0.03-0.24 0.05-0.36 0.08c0 0.01 0 0.03 0 0.04c-0.03 0-0.05 0-0.08 0c0 0.01 0 0.03 0 0.04c-0.09 0.01-0.19 0.03-0.28 0.04c0 0.01 0 0.03 0 0.04c-0.04 0-0.08 0-0.12 0c0 0.01 0 0.03 0 0.04c-0.04 0-0.08 0-0.12 0c0 0.01 0 0.03 0 0.04c-0.04 0-0.08 0-0.12 0c0 0.01 0 0.03 0 0.04c-0.05 0-0.11 0-0.16 0c0 0.01 0 0.03 0 0.04c-0.05 0-0.11 0-0.16 0c0 0.01 0 0.03 0 0.04c-0.05 0-0.11 0-0.16 0c0 0.01 0 0.03 0 0.04c-0.05 0-0.11 0-0.16 0c0 0.01 0 0.03 0 0.04c-0.05 0-0.11 0-0.16 0c0 0.01 0 0.03 0 0.04c-0.07 0-0.13 0-0.2 0c0 0.01 0 0.03 0 0.04c-0.07 0-0.13 0-0.2 0c0 0.01 0 0.03 0 0.04c-0.07 0-0.13 0-0.2 0c0 0.01 0 0.03 0 0.04c-0.08 0-0.16 0-0.24 0c0 0.01 0 0.03 0 0.04c-0.19 0.01-0.37 0.03-0.56 0.04c0 0.01 0 0.03 0 0.04c-0.53 0.03-1.06 0.05-1.6 0.08c-0.47-0.01-0.93-0.03-1.4-0.04c0-0.01 0-0.03 0-0.04c-0.12 0-0.24 0-0.36 0c0-0.01 0-0.03 0-0.04c-0.11 0-0.21 0-0.32 0c-0.63-0.13-1.25-0.27-1.88-0.4c-0.95-0.34-1.92-0.66-2.72-1.16c-0.03 0-0.05 0-0.08 0c0-0.01 0-0.03 0-0.04c-0.03 0-0.05 0-0.08 0c0-0.01 0-0.03 0-0.04c-0.03 0-0.05 0-0.08 0c0-0.01 0-0.03 0-0.04c-0.03 0-0.05 0-0.08 0c-0.01-0.03-0.03-0.05-0.04-0.08c-0.08-0.03-0.16-0.05-0.24-0.08c0-0.01 0-0.03 0-0.04c-0.04-0.01-0.08-0.03-0.12-0.04c-0.01-0.03-0.03-0.05-0.04-0.08c-0.05-0.01-0.11-0.03-0.16-0.04c0-0.01 0-0.03 0-0.04c-0.04-0.01-0.08-0.03-0.12-0.04c-0.01-0.03-0.03-0.05-0.04-0.08c-0.03 0-0.05 0-0.08 0c-0.01-0.03-0.03-0.05-0.04-0.08c-0.03 0-0.05 0-0.08 0c0-0.01 0-0.03 0-0.04c-0.04-0.01-0.08-0.03-0.12-0.04c-0.01-0.03-0.03-0.05-0.04-0.08c-0.03 0-0.05 0-0.08 0c-0.03-0.04-0.05-0.08-0.08-0.12c-0.03 0-0.05 0-0.08 0c-0.03-0.04-0.05-0.08-0.08-0.12c-0.03 0-0.05 0-0.08 0c-0.03-0.04-0.05-0.08-0.08-0.12c-0.03 0-0.05 0-0.08 0c-0.04-0.05-0.08-0.11-0.12-0.16c-0.03 0-0.05 0-0.08 0c-0.03-0.04-0.05-0.08-0.08-0.12c-0.01 0-0.03 0-0.04 0c-0.01-0.03-0.03-0.05-0.04-0.08c-0.03 0-0.05 0-0.08 0c-0.07-0.08-0.13-0.16-0.2-0.24c-0.03 0-0.05 0-0.08 0c-0.16-0.17-0.32-0.35-0.48-0.52c-0.23-0.21-0.45-0.43-0.68-0.64c0-0.03 0-0.05 0-0.08c-0.08-0.07-0.16-0.13-0.24-0.2c0-0.03 0-0.05 0-0.08c-0.07-0.05-0.13-0.11-0.2-0.16c0-0.03 0-0.05 0-0.08c-0.05-0.04-0.11-0.08-0.16-0.12c0-0.03 0-0.05 0-0.08c-0.04-0.03-0.08-0.05-0.12-0.08c0-0.03 0-0.05 0-0.08c-0.04-0.03-0.08-0.05-0.12-0.08c0-0.03 0-0.05 0-0.08c-0.04-0.03-0.08-0.05-0.12-0.08c0-0.03 0-0.05 0-0.08c-0.03-0.01-0.05-0.03-0.08-0.04c-0.01-0.04-0.03-0.08-0.04-0.12c-0.01 0-0.03 0-0.04 0c0-0.03 0-0.05 0-0.08c-0.03-0.01-0.05-0.03-0.08-0.04c0-0.03 0-0.05 0-0.08c-0.03-0.01-0.05-0.03-0.08-0.04c0-0.03 0-0.05 0-0.08c-0.03-0.01-0.05-0.03-0.08-0.04c-0.01-0.05-0.03-0.11-0.04-0.16c-0.03-0.01-0.05-0.03-0.08-0.04c-0.01-0.04-0.03-0.08-0.04-0.12c-0.01 0-0.03 0-0.04 0c-0.03-0.08-0.05-0.16-0.08-0.24c-0.03-0.01-0.05-0.03-0.08-0.04c0-0.03 0-0.05 0-0.08c-0.01 0-0.03 0-0.04 0c0-0.03 0-0.05 0-0.08c-0.01 0-0.03 0-0.04 0c0-0.03 0-0.05 0-0.08c-0.01 0-0.03 0-0.04 0c0-0.03 0-0.05 0-0.08c-0.5-0.79-0.82-1.77-1.16-2.72c-0.01-0.11-0.03-0.21-0.04-0.32c-0.01 0-0.03 0-0.04 0c0-0.05 0-0.11 0-0.16c-0.01 0-0.03 0-0.04 0c0-0.05 0-0.11 0-0.16c-0.01 0-0.03 0-0.04 0c0-0.05 0-0.11 0-0.16c-0.01 0-0.03 0-0.04 0c0-0.07 0-0.13 0-0.2c-0.01 0-0.03 0-0.04 0c-0.01-0.13-0.03-0.27-0.04-0.4c-0.01 0-0.03 0-0.04 0c0-0.08 0-0.16 0-0.24c-0.01 0-0.03 0-0.04 0c0-0.09 0-0.19 0-0.28c-0.01 0-0.03 0-0.04 0c-0.01-0.23-0.03-0.45-0.04-0.68c-0.01 0-0.03 0-0.04 0c0-0.17 0-0.35 0-0.52c-0.08-0.31-0.09-1.21 0-1.52c0-0.17 0-0.35 0-0.52c0.01 0 0.03 0 0.04 0c0.01-0.23 0.03-0.45 0.04-0.68c0.01 0 0.03 0 0.04 0c0-0.09 0-0.19 0-0.28c0.06-0.19 0.1-0.46 0.16-0.64c0-0.07 0-0.13 0-0.2c0.01 0 0.03 0 0.04 0c0-0.05 0-0.11 0-0.16c0.01 0 0.03 0 0.04 0c0-0.05 0-0.11 0-0.16c0.01 0 0.03 0 0.04 0c0-0.05 0-0.11 0-0.16c0.01 0 0.03 0 0.04 0c0-0.05 0-0.11 0-0.16c0.01 0 0.03 0 0.04 0c0-0.05 0-0.11 0-0.16c0.01 0 0.03 0 0.04 0c0-0.04 0-0.08 0-0.12c0.01 0 0.03 0 0.04 0c0-0.04 0-0.08 0-0.12c0.01 0 0.03 0 0.04 0c0-0.04 0-0.08 0-0.12c0.01 0 0.03 0 0.04 0c0-0.05 0-0.11 0-0.16c0.01 0 0.03 0 0.04 0c0-0.04 0-0.08 0-0.12c0.01 0 0.03 0 0.04 0c0-0.03 0-0.05 0-0.08c0.01 0 0.03 0 0.04 0c0.03-0.12 0.05-0.24 0.08-0.36c0.01 0 0.03 0 0.04 0c0-0.03 0-0.05 0-0.08c0.01 0 0.03 0 0.04 0c0-0.04 0-0.08 0-0.12c0.01 0 0.03 0 0.04 0c0-0.03 0-0.05 0-0.08c0.01 0 0.03 0 0.04 0c0-0.04 0-0.08 0-0.12c0.01 0 0.03 0 0.04 0c0-0.03 0-0.05 0-0.08c0.01 0 0.03 0 0.04 0c0-0.04 0-0.08 0-0.12c0.01 0 0.03 0 0.04 0c0.03-0.08 0.05-0.16 0.08-0.24c0.01 0 0.03 0 0.04 0c0-0.03 0-0.05 0-0.08c0.01 0 0.03 0 0.04 0c0-0.04 0-0.08 0-0.12c0.01 0 0.03 0 0.04 0c0.03-0.08 0.05-0.16 0.08-0.24c0.01 0 0.03 0 0.04 0c0-0.03 0-0.05 0-0.08c0.01 0 0.03 0 0.04 0c0.03-0.08 0.05-0.16 0.08-0.24c0.03-0.01 0.05-0.03 0.08-0.04c0-0.03 0-0.05 0-0.08c0.01 0 0.03 0 0.04 0c0-0.03 0-0.05 0-0.08c0.01 0 0.03 0 0.04 0c0-0.03 0-0.05 0-0.08c0.01 0 0.03 0 0.04 0c0-0.03 0-0.05 0-0.08c0.03-0.01 0.05-0.03 0.08-0.04c0.03-0.08 0.05-0.16 0.08-0.24c0.01 0 0.03 0 0.04 0c0.01-0.04 0.03-0.08 0.04-0.12c0.03-0.01 0.05-0.03 0.08-0.04c0.01-0.05 0.03-0.11 0.04-0.16c0.01 0 0.03 0 0.04 0c0.01-0.04 0.03-0.08 0.04-0.12c0.03-0.01 0.05-0.03 0.08-0.04c0-0.03 0-0.05 0-0.08c0.01 0 0.03 0 0.04 0c0.01-0.04 0.03-0.08 0.04-0.12c0.03-0.01 0.05-0.03 0.08-0.04c0-0.03 0-0.05 0-0.08c0.04-0.03 0.08-0.05 0.12-0.08c0-0.03 0-0.05 0-0.08c0.03-0.01 0.05-0.03 0.08-0.04c0-0.03 0-0.05 0-0.08c0.04-0.03 0.08-0.05 0.12-0.08c0-0.03 0-0.05 0-0.08c0.04-0.03 0.08-0.05 0.12-0.08c0-0.03 0-0.05 0-0.08c0.05-0.04 0.11-0.08 0.16-0.12c0-0.03 0-0.05 0-0.08c0.04-0.03 0.08-0.05 0.12-0.08c0-0.01 0-0.03 0-0.04c0.03-0.01 0.05-0.03 0.08-0.04c0-0.03 0-0.05 0-0.08c0.08-0.07 0.16-0.13 0.24-0.2c0-0.03 0-0.05 0-0.08c0.2-0.19 0.4-0.37 0.6-0.56c0.19-0.2 0.37-0.4 0.56-0.6c0.03 0 0.05 0 0.08 0c0.07-0.08 0.13-0.16 0.2-0.24c0.03 0 0.05 0 0.08 0c0.05-0.07 0.11-0.13 0.16-0.2c0.03 0 0.05 0 0.08 0c0.04-0.05 0.08-0.11 0.12-0.16c0.03 0 0.05 0 0.08 0c0.03-0.04 0.05-0.08 0.08-0.12c0.03 0 0.05 0 0.08 0c0.03-0.04 0.05-0.08 0.08-0.12c0.03 0 0.05 0 0.08 0c0.01-0.03 0.03-0.05 0.04-0.08c0.03 0 0.05 0 0.08 0c0.03-0.04 0.05-0.08 0.08-0.12c0.03 0 0.05 0 0.08 0c0.01-0.03 0.03-0.05 0.04-0.08c0.03 0 0.05 0 0.08 0c0.01-0.03 0.03-0.05 0.04-0.08c0.03 0 0.05 0 0.08 0c0.01-0.03 0.03-0.05 0.04-0.08c0.03 0 0.05 0 0.08 0c0.01-0.03 0.03-0.05 0.04-0.08c0.05-0.01 0.11-0.03 0.16-0.04c0.01-0.03 0.03-0.05 0.04-0.08c0.04-0.01 0.08-0.03 0.12-0.04c0-0.01 0-0.03 0-0.04c0.03 0 0.05 0 0.08 0c0-0.01 0-0.03 0-0.04c0.03 0 0.05 0 0.08 0c0-0.01 0-0.03 0-0.04c0.03 0 0.05 0 0.08 0c0.01-0.03 0.03-0.05 0.04-0.08c0.03 0 0.05 0 0.08 0c0-0.01 0-0.03 0-0.04c0.03 0 0.05 0 0.08 0c0-0.01 0-0.03 0-0.04c0.03 0 0.05 0 0.08 0c0-0.01 0-0.03 0-0.04c0.03 0 0.05 0 0.08 0c0.01-0.03 0.03-0.05 0.04-0.08c0.03 0 0.05 0 0.08 0c0-0.01 0-0.03 0-0.04c0.08-0.03 0.16-0.05 0.24-0.08c0-0.01 0-0.03 0-0.04c0.08-0.03 0.16-0.05 0.24-0.08c0-0.01 0-0.03 0-0.04c0.04 0 0.08 0 0.12 0c0-0.01 0-0.03 0-0.04c0.03 0 0.05 0 0.08 0c0-0.01 0-0.03 0-0.04c0.08-0.03 0.16-0.05 0.24-0.08c0-0.01 0-0.03 0-0.04c0.04 0 0.08 0 0.12 0c0-0.01 0-0.03 0-0.04c0.03 0 0.05 0 0.08 0c0-0.01 0-0.03 0-0.04c0.04 0 0.08 0 0.12 0c0-0.01 0-0.03 0-0.04c0.03 0 0.05 0 0.08 0c0-0.01 0-0.03 0-0.04c0.04 0 0.08 0 0.12 0c0-0.01 0-0.03 0-0.04c0.03 0 0.05 0 0.08 0c0-0.01 0-0.03 0-0.04c0.12-0.03 0.24-0.05 0.36-0.08c0-0.01 0-0.03 0-0.04c0.03 0 0.05 0 0.08 0c0-0.01 0-0.03 0-0.04c0.09-0.01 0.19-0.03 0.28-0.04c0-0.01 0-0.03 0-0.04c0.04 0 0.08 0 0.12 0c0-0.01 0-0.03 0-0.04c0.04 0 0.08 0 0.12 0c0-0.01 0-0.03 0-0.04c0.04 0 0.08 0 0.12 0c0-0.01 0-0.03 0-0.04c0.11-0.01 0.21-0.03 0.32-0.04c0-0.01 0-0.03 0-0.04c0.05 0 0.11 0 0.16 0c0-0.01 0-0.03 0-0.04c0.05 0 0.11 0 0.16 0c0-0.01 0-0.03 0-0.04c0.05 0 0.11 0 0.16 0c0-0.01 0-0.03 0-0.04c0.07 0 0.13 0 0.2 0c0-0.01 0-0.03 0-0.04c0.13-0.01 0.27-0.03 0.4-0.04c0-0.01 0-0.03 0-0.04c0.08 0 0.16 0 0.24 0c0-0.01 0-0.03 0-0.04c0.09 0 0.19 0 0.28 0c0-0.01 0-0.03 0-0.04c0.09 0 0.19 0 0.28 0c0-0.01 0-0.03 0-0.04c0.12 0 0.24 0 0.36 0c0-0.01 0-0.03 0-0.04c0.19 0 0.37 0 0.56 0c0.31-0.09 1.21-0.09 1.52 0c0.19 0 0.37 0 0.56 0c0 0.01 0 0.03 0 0.04c0.12 0 0.24 0 0.36 0c0 0.01 0 0.03 0 0.04c0.09 0 0.19 0 0.28 0c0 0.01 0 0.03 0 0.04c0.09 0 0.19 0 0.28 0c0 0.01 0 0.03 0 0.04c0.15 0.01 0.29 0.03 0.44 0.04c0 0.01 0 0.03 0 0.04c0.13 0.01 0.27 0.03 0.4 0.04c0 0.01 0 0.03 0 0.04c0.11 0.01 0.21 0.03 0.32 0.04c0 0.01 0 0.03 0 0.04c0.05 0 0.11 0 0.16 0c0 0.01 0 0.03 0 0.04c0.05 0 0.11 0 0.16 0c0 0.01 0 0.03 0 0.04c0.05 0 0.11 0 0.16 0c0 0.01 0 0.03 0 0.04c0.04 0 0.08 0 0.12 0c0 0.01 0 0.03 0 0.04c0.04 0 0.08 0 0.12 0c0 0.01 0 0.03 0 0.04c0.04 0 0.08 0 0.12 0c0 0.01 0 0.03 0 0.04c0.05 0 0.11 0 0.16 0c0 0.01 0 0.03 0 0.04c0.04 0 0.08 0 0.12 0c0 0.01 0 0.03 0 0.04c0.07 0.01 0.13 0.03 0.2 0.04c0 0.01 0 0.03 0 0.04c-0.04 0.03-0.18 0.2-0.2 0.24c0 0.07 0 0.13 0 0.2c-0.01 0-0.03 0-0.04 0c0 0.05 0 0.11 0 0.16c-0.01 0-0.03 0-0.04 0c0 0.05 0 0.11 0 0.16c-0.01 0-0.03 0-0.04 0c0 0.05 0 0.11 0 0.16c-0.01 0-0.03 0-0.04 0c0 0.05 0 0.11 0 0.16c-0.01 0-0.03 0-0.04 0c0 0.72 0 1.44 0 2.16zm3.43 6.64c0.04 0.13 0.08 0.27 0.12 0.4c0.01 0 0.03 0 0.04 0c0 0.04 0 0.08 0 0.12c0.01 0 0.03 0 0.04 0c0 0.04 0 0.08 0 0.12c0.01 0 0.03 0 0.04 0c0 0.04 0 0.08 0 0.12c0.01 0 0.03 0 0.04 0c0.01 0.09 0.03 0.19 0.04 0.28c0.01 0 0.03 0 0.04 0c0.08 0.41 0.16 0.83 0.24 1.24c0 0.15 0 0.29 0 0.44c0.01 0 0.03 0 0.04 0c0 0.2 0 0.4 0 0.6c0 0.53-0.04 1.07-0.16 1.48c-0.01 0.13-0.03 0.27-0.04 0.4c-0.01 0-0.03 0-0.04 0c-0.01 0.11-0.03 0.21-0.04 0.32c-0.01 0-0.03 0-0.04 0c-0.01 0.09-0.03 0.19-0.04 0.28c-0.01 0-0.03 0-0.04 0c0 0.04 0 0.08 0 0.12c-0.01 0-0.03 0-0.04 0c0 0.04 0 0.08 0 0.12c-0.01 0-0.03 0-0.04 0c0 0.04 0 0.08 0 0.12c-0.01 0-0.03 0-0.04 0c0 0.03 0 0.05 0 0.08c-0.01 0-0.03 0-0.04 0c0 0.04 0 0.08 0 0.12c-0.01 0-0.03 0-0.04 0c0 0.03 0 0.05 0 0.08c-0.01 0-0.03 0-0.04 0c0 0.04 0 0.08 0 0.12c-0.01 0-0.03 0-0.04 0c-0.01 0.05-0.03 0.11-0.04 0.16c-0.01 0-0.03 0-0.04 0c0 0.03 0 0.05 0 0.08c-0.01 0-0.03 0-0.04 0c0 0.04 0 0.08 0 0.12c-0.01 0-0.03 0-0.04 0c-0.01 0.05-0.03 0.11-0.04 0.16c-0.01 0-0.03 0-0.04 0c-0.01 0.05-0.03 0.11-0.04 0.16c-0.03 0.01-0.05 0.03-0.08 0.04c-0.03 0.08-0.05 0.16-0.08 0.24c-0.03 0.01-0.05 0.03-0.08 0.04c-0.01 0.05-0.03 0.11-0.04 0.16c-0.01 0-0.03 0-0.04 0c-0.01 0.04-0.03 0.08-0.04 0.12c-0.03 0.01-0.05 0.03-0.08 0.04c0 0.03 0 0.05 0 0.08c-0.01 0-0.03 0-0.04 0c-0.01 0.04-0.03 0.08-0.04 0.12c-0.03 0.01-0.05 0.03-0.08 0.04c0 0.03 0 0.05 0 0.08c-0.04 0.03-0.08 0.05-0.12 0.08c0 0.03 0 0.05 0 0.08c-0.04 0.03-0.08 0.05-0.12 0.08c0 0.03 0 0.05 0 0.08c-0.07 0.05-0.13 0.11-0.2 0.16c0 0.03 0 0.05 0 0.08c-0.13 0.12-0.27 0.24-0.4 0.36c-0.17 0.19-0.35 0.37-0.52 0.56c-0.03 0-0.05 0-0.08 0c-0.05 0.07-0.11 0.13-0.16 0.2c-0.03 0-0.05 0-0.08 0c-0.03 0.04-0.05 0.08-0.08 0.12c-0.03 0-0.05 0-0.08 0c-0.03 0.04-0.05 0.08-0.08 0.12c-0.03 0-0.05 0-0.08 0c-0.01 0.03-0.03 0.05-0.04 0.08c-0.04 0.01-0.08 0.03-0.12 0.04c0 0.01 0 0.03 0 0.04c-0.03 0-0.05 0-0.08 0c-0.01 0.03-0.03 0.05-0.04 0.08c-0.04 0.01-0.08 0.03-0.12 0.04c0 0.01 0 0.03 0 0.04c-0.05 0.01-0.11 0.03-0.16 0.04c-0.01 0.03-0.03 0.05-0.04 0.08c-0.08 0.03-0.16 0.05-0.24 0.08c-0.01 0.03-0.03 0.05-0.04 0.08c-0.05 0.01-0.11 0.03-0.16 0.04c0 0.01 0 0.03 0 0.04c-0.05 0.01-0.11 0.03-0.16 0.04c0 0.01 0 0.03 0 0.04c-0.04 0-0.08 0-0.12 0c0 0.01 0 0.03 0 0.04c-0.03 0-0.05 0-0.08 0c0 0.01 0 0.03 0 0.04c-0.05 0.01-0.11 0.03-0.16 0.04c0 0.01 0 0.03 0 0.04c-0.04 0-0.08 0-0.12 0c0 0.01 0 0.03 0 0.04c-0.03 0-0.05 0-0.08 0c0 0.01 0 0.03 0 0.04c-0.07 0.01-0.13 0.03-0.2 0.04c0 0.01 0 0.03 0 0.04c-0.04 0-0.08 0-0.12 0c0 0.01 0 0.03 0 0.04c-0.04 0-0.08 0-0.12 0c0 0.01 0 0.03 0 0.04c-0.04 0-0.08 0-0.12 0c0 0.01 0 0.03 0 0.04c-0.09 0.01-0.19 0.03-0.28 0.04c0 0.01 0 0.03 0 0.04c-0.11 0.01-0.21 0.03-0.32 0.04c0 0.01 0 0.03 0 0.04c-0.07 0-0.13 0-0.2 0c0 0.01 0 0.03 0 0.04c-0.07 0-0.13 0-0.2 0c0 0.01 0 0.03 0 0.04c-0.08 0-0.16 0-0.24 0c0 0.01 0 0.03 0 0.04c-0.09 0-0.19 0-0.28 0c0 0.01 0 0.03 0 0.04c-0.15 0-0.29 0-0.44 0c-0.44 0.12-1.47 0.03-1.84-0.08c-0.08 0-0.16 0-0.24 0c-0.45-0.12-0.91-0.24-1.36-0.36c0-0.01 0-0.03 0-0.04c-0.03 0-0.05 0-0.08 0c0-0.01 0-0.03 0-0.04c-0.04 0-0.08 0-0.12 0c0-0.01 0-0.03 0-0.04c-0.03 0-0.05 0-0.08 0c0-0.01 0-0.03 0-0.04c-0.04 0-0.08 0-0.12 0c0-0.01 0-0.03 0-0.04c-0.05-0.01-0.11-0.03-0.16-0.04c0-0.01 0-0.03 0-0.04c-0.03 0-0.05 0-0.08 0c0-0.01 0-0.03 0-0.04c-0.12-0.04-0.24-0.08-0.36-0.12c-0.01-0.03-0.03-0.05-0.04-0.08c-0.03 0-0.05 0-0.08 0c0-0.01 0-0.03 0-0.04c-0.03 0-0.05 0-0.08 0c0-0.01 0-0.03 0-0.04c-0.03 0-0.05 0-0.08 0c0-0.01 0-0.03 0-0.04c-0.03 0-0.05 0-0.08 0c-0.01-0.03-0.03-0.05-0.04-0.08c-0.05-0.01-0.11-0.03-0.16-0.04c-0.01-0.03-0.03-0.05-0.04-0.08c-0.03 0-0.05 0-0.08 0c-0.01-0.03-0.03-0.05-0.04-0.08c-0.03 0-0.05 0-0.08 0c0-0.01 0-0.03 0-0.04c-0.04-0.01-0.08-0.03-0.12-0.04c-0.01-0.03-0.03-0.05-0.04-0.08c-0.03 0-0.05 0-0.08 0c-0.03-0.04-0.05-0.08-0.08-0.12c-0.03 0-0.05 0-0.08 0c-0.03-0.04-0.05-0.08-0.08-0.12c-0.03 0-0.05 0-0.08 0c-0.05-0.07-0.11-0.13-0.16-0.2c-0.03 0-0.05 0-0.08 0c-0.23-0.24-0.45-0.48-0.68-0.72c-0.08-0.07-0.16-0.13-0.24-0.2c0-0.03 0-0.05 0-0.08c-0.07-0.05-0.13-0.11-0.2-0.16c0-0.03 0-0.05 0-0.08c-0.04-0.03-0.08-0.05-0.12-0.08c0-0.03 0-0.05 0-0.08c-0.04-0.03-0.08-0.05-0.12-0.08c0-0.03 0-0.05 0-0.08c-0.03-0.01-0.05-0.03-0.08-0.04c0-0.03 0-0.05 0-0.08c-0.03-0.01-0.05-0.03-0.08-0.04c0-0.03 0-0.05 0-0.08c-0.03-0.01-0.05-0.03-0.08-0.04c0-0.03 0-0.05 0-0.08c-0.03-0.01-0.05-0.03-0.08-0.04c-0.01-0.05-0.03-0.11-0.04-0.16c-0.03-0.01-0.05-0.03-0.08-0.04c0-0.03 0-0.05 0-0.08c-0.01 0-0.03 0-0.04 0c0-0.03 0-0.05 0-0.08c-0.01 0-0.03 0-0.04 0c0-0.03 0-0.05 0-0.08c-0.01 0-0.03 0-0.04 0c0-0.03 0-0.05 0-0.08c-0.03-0.01-0.05-0.03-0.08-0.04c-0.04-0.12-0.08-0.24-0.12-0.36c-0.01 0-0.03 0-0.04 0c0-0.03 0-0.05 0-0.08c-0.01 0-0.03 0-0.04 0c-0.01-0.05-0.03-0.11-0.04-0.16c-0.01 0-0.03 0-0.04 0c0-0.04 0-0.08 0-0.12c-0.01 0-0.03 0-0.04 0c0-0.03 0-0.05 0-0.08c-0.01 0-0.03 0-0.04 0c0-0.04 0-0.08 0-0.12c-0.01 0-0.03 0-0.04 0c0-0.03 0-0.05 0-0.08c-0.01 0-0.03 0-0.04 0c0-0.04 0-0.08 0-0.12c-0.01 0-0.03 0-0.04 0c0-0.04 0-0.08 0-0.12c-0.01 0-0.03 0-0.04 0c0-0.04 0-0.08 0-0.12c-0.01 0-0.03 0-0.04 0c0-0.05 0-0.11 0-0.16c-0.01 0-0.03 0-0.04 0c0-0.04 0-0.08 0-0.12c-0.01 0-0.03 0-0.04 0c-0.08-0.41-0.16-0.83-0.24-1.24c0-0.15 0-0.29 0-0.44c-0.01 0-0.03 0-0.04 0c-0.05-0.19 0-0.98 0.04-1.12c0-0.15 0-0.29 0-0.44c0.08-0.28 0.11-0.65 0.2-0.92c0-0.05 0-0.11 0-0.16c0.01 0 0.03 0 0.04 0c0-0.05 0-0.11 0-0.16c0.01 0 0.03 0 0.04 0c0-0.04 0-0.08 0-0.12c0.01 0 0.03 0 0.04 0c0-0.05 0-0.11 0-0.16c0.01 0 0.03 0 0.04 0c0-0.04 0-0.08 0-0.12c0.01 0 0.03 0 0.04 0c0-0.04 0-0.08 0-0.12c0.01 0 0.03 0 0.04 0c0-0.04 0-0.08 0-0.12c0.01 0 0.03 0 0.04 0c0-0.03 0-0.05 0-0.08c0.01 0 0.03 0 0.04 0c0-0.04 0-0.08 0-0.12c0.01 0 0.03 0 0.04 0c0-0.03 0-0.05 0-0.08c0.01 0 0.03 0 0.04 0c0-0.04 0-0.08 0-0.12c0.01 0 0.03 0 0.04 0c0.01-0.05 0.03-0.11 0.04-0.16c0.01 0 0.03 0 0.04 0c0-0.03 0-0.05 0-0.08c0.01 0 0.03 0 0.04 0c0-0.04 0-0.08 0-0.12c0.01 0 0.03 0 0.04 0c0.01-0.05 0.03-0.11 0.04-0.16c0.01 0 0.03 0 0.04 0c0-0.03 0-0.05 0-0.08c0.03-0.01 0.05-0.03 0.08-0.04c0-0.03 0-0.05 0-0.08c0.01 0 0.03 0 0.04 0c0-0.03 0-0.05 0-0.08c0.01 0 0.03 0 0.04 0c0-0.03 0-0.05 0-0.08c0.01 0 0.03 0 0.04 0c0-0.03 0-0.05 0-0.08c0.03-0.01 0.05-0.03 0.08-0.04c0.01-0.05 0.03-0.11 0.04-0.16c0.01 0 0.03 0 0.04 0c0.01-0.04 0.03-0.08 0.04-0.12c0.03-0.01 0.05-0.03 0.08-0.04c0-0.03 0-0.05 0-0.08c0.01 0 0.03 0 0.04 0c0.01-0.04 0.03-0.08 0.04-0.12c0.03-0.01 0.05-0.03 0.08-0.04c0-0.03 0-0.05 0-0.08c0.04-0.03 0.08-0.05 0.12-0.08c0-0.03 0-0.05 0-0.08c0.04-0.03 0.08-0.05 0.12-0.08c0-0.03 0-0.05 0-0.08c0.07-0.05 0.13-0.11 0.2-0.16c0-0.03 0-0.05 0-0.08c0.16-0.15 0.32-0.29 0.48-0.44c0.15-0.16 0.29-0.32 0.44-0.48c0.03 0 0.05 0 0.08 0c0.05-0.07 0.11-0.13 0.16-0.2c0.03 0 0.05 0 0.08 0c0.03-0.04 0.05-0.08 0.08-0.12c0.03 0 0.05 0 0.08 0c0.03-0.04 0.05-0.08 0.08-0.12c0.03 0 0.05 0 0.08 0c0.01-0.03 0.03-0.05 0.04-0.08c0.04-0.01 0.08-0.03 0.12-0.04c0-0.01 0-0.03 0-0.04c0.03 0 0.05 0 0.08 0c0.01-0.03 0.03-0.05 0.04-0.08c0.04-0.01 0.08-0.03 0.12-0.04c0-0.01 0-0.03 0-0.04c0.05-0.01 0.11-0.03 0.16-0.04c0.01-0.03 0.03-0.05 0.04-0.08c0.08-0.03 0.16-0.05 0.24-0.08c0-0.01 0-0.03 0-0.04c0.03 0 0.05 0 0.08 0c0.01-0.03 0.03-0.05 0.04-0.08c0.12-0.04 0.24-0.08 0.36-0.12c0-0.01 0-0.03 0-0.04c0.03 0 0.05 0 0.08 0c0-0.01 0-0.03 0-0.04c0.05-0.01 0.11-0.03 0.16-0.04c0-0.01 0-0.03 0-0.04c0.04 0 0.08 0 0.12 0c0-0.01 0-0.03 0-0.04c0.03 0 0.05 0 0.08 0c0-0.01 0-0.03 0-0.04c0.04 0 0.08 0 0.12 0c0-0.01 0-0.03 0-0.04c0.03 0 0.05 0 0.08 0c0-0.01 0-0.03 0-0.04c0.04 0 0.08 0 0.12 0c0-0.01 0-0.03 0-0.04c0.04 0 0.08 0 0.12 0c0-0.01 0-0.03 0-0.04c0.04 0 0.08 0 0.12 0c0-0.01 0-0.03 0-0.04c0.09-0.01 0.19-0.03 0.28-0.04c0-0.01 0-0.03 0-0.04c0.05 0 0.11 0 0.16 0c0-0.01 0-0.03 0-0.04c0.05 0 0.11 0 0.16 0c0-0.01 0-0.03 0-0.04c0.07 0 0.13 0 0.2 0c0-0.01 0-0.03 0-0.04c0.07 0 0.13 0 0.2 0c0-0.01 0-0.03 0-0.04c0.08 0 0.16 0 0.24 0c0-0.01 0-0.03 0-0.04c0.09 0 0.19 0 0.28 0c0-0.01 0-0.03 0-0.04c0.15 0 0.29 0 0.44 0c0.14-0.04 0.93-0.09 1.12-0.04c0 0.01 0 0.03 0 0.04c0.15 0 0.29 0 0.44 0c0 0.01 0 0.03 0 0.04c0.09 0 0.19 0 0.28 0c0 0.01 0 0.03 0 0.04c0.08 0 0.16 0 0.24 0c0 0.01 0 0.03 0 0.04c0.07 0 0.13 0 0.2 0c0 0.01 0 0.03 0 0.04c0.12 0.01 0.24 0.03 0.36 0.04c0 0.01 0 0.03 0 0.04c0.05 0 0.11 0 0.16 0c0 0.01 0 0.03 0 0.04c0.09 0.01 0.19 0.03 0.28 0.04c0 0.01 0 0.03 0 0.04c0.04 0 0.08 0 0.12 0c0 0.01 0 0.03 0 0.04c0.04 0 0.08 0 0.12 0c0 0.01 0 0.03 0 0.04c0.04 0 0.08 0 0.12 0c0 0.01 0 0.03 0 0.04c0.03 0 0.05 0 0.08 0c0 0.01 0 0.03 0 0.04c0.15 0.06 0.3 0.05 0.4 0.16c-0.01 0-0.03 0-0.04 0c-0.06 0.11-0.16 0.16-0.24 0.24c-0.16 0.16-0.32 0.32-0.48 0.48c-0.15 0.16-0.29 0.32-0.44 0.48c-0.07 0.05-0.13 0.11-0.2 0.16c0 0.03 0 0.05 0 0.08c-0.04 0.01-0.08 0.03-0.12 0.04c-0.01 0.03-0.03 0.05-0.04 0.08c-0.07 0.05-0.13 0.11-0.2 0.16c-0.07 0.09-0.13 0.19-0.2 0.28c-0.03 0-0.05 0-0.08 0c-0.16 0.17-0.32 0.35-0.48 0.52c-0.13 0-0.27 0-0.4 0c-0.05-0.04-0.75-0.08-0.88-0.04c0 0.01 0 0.03 0 0.04c-0.12 0-0.24 0-0.36 0c0 0.01 0 0.03 0 0.04c-0.07 0-0.13 0-0.2 0c0 0.01 0 0.03 0 0.04c-0.07 0-0.13 0-0.2 0c0 0.01 0 0.03 0 0.04c-0.05 0-0.11 0-0.16 0c0 0.01 0 0.03 0 0.04c-0.04 0-0.08 0-0.12 0c0 0.01 0 0.03 0 0.04c-0.05 0-0.11 0-0.16 0c0 0.01 0 0.03 0 0.04c-0.03 0-0.05 0-0.08 0c0 0.01 0 0.03 0 0.04c-0.08 0.01-0.16 0.03-0.24 0.04c0 0.01 0 0.03 0 0.04c-0.05 0.01-0.11 0.03-0.16 0.04c0 0.01 0 0.03 0 0.04c-0.04 0-0.08 0-0.12 0c0 0.01 0 0.03 0 0.04c-0.03 0-0.05 0-0.08 0c0 0.01 0 0.03 0 0.04c-0.03 0-0.05 0-0.08 0c-0.01 0.03-0.03 0.05-0.04 0.08c-0.08 0.03-0.16 0.05-0.24 0.08c-0.01 0.03-0.03 0.05-0.04 0.08c-0.05 0.01-0.11 0.03-0.16 0.04c-0.03 0.04-0.05 0.08-0.08 0.12c-0.03 0-0.05 0-0.08 0c-0.01 0.03-0.03 0.05-0.04 0.08c-0.03 0-0.05 0-0.08 0c-0.04 0.05-0.08 0.11-0.12 0.16c-0.75 0.54-1.25 1.34-1.64 2.24c-0.01 0.09-0.03 0.19-0.04 0.28c-0.01 0-0.03 0-0.04 0c0 0.04 0 0.08 0 0.12c-0.01 0-0.03 0-0.04 0c0 0.05 0 0.11 0 0.16c-0.01 0-0.03 0-0.04 0c0 0.07 0 0.13 0 0.2c-0.16 0.54-0.17 1.46 0 2c0.01 0.12 0.03 0.24 0.04 0.36c0.01 0 0.03 0 0.04 0c0 0.04 0 0.08 0 0.12c0.01 0 0.03 0 0.04 0c0.01 0.09 0.03 0.19 0.04 0.28c0.01 0 0.03 0 0.04 0c0 0.03 0 0.05 0 0.08c0.01 0 0.03 0 0.04 0c0 0.04 0 0.08 0 0.12c0.01 0 0.03 0 0.04 0c0.01 0.05 0.03 0.11 0.04 0.16c0.01 0 0.03 0 0.04 0c0.04 0.12 0.08 0.24 0.12 0.36c0.03 0.01 0.05 0.03 0.08 0.04c0.01 0.05 0.03 0.11 0.04 0.16c0.03 0.01 0.05 0.03 0.08 0.04c0.01 0.05 0.03 0.11 0.04 0.16c0.04 0.03 0.08 0.05 0.12 0.08c0.01 0.04 0.03 0.08 0.04 0.12c0.01 0 0.03 0 0.04 0c0 0.03 0 0.05 0 0.08c0.05 0.04 0.11 0.08 0.16 0.12c0.65 0.91 1.61 1.43 2.8 1.8c0.07 0 0.13 0 0.2 0c0 0.01 0 0.03 0 0.04c0.07 0 0.13 0 0.2 0c0 0.01 0 0.03 0 0.04c0.12 0 0.24 0 0.36 0c0 0.01 0 0.03 0 0.04c0.2 0.05 0.74 0 0.88-0.04c0.12 0 0.24 0 0.36 0c0-0.01 0-0.03 0-0.04c0.07 0 0.13 0 0.2 0c0-0.01 0-0.03 0-0.04c0.07 0 0.13 0 0.2 0c0-0.01 0-0.03 0-0.04c0.05 0 0.11 0 0.16 0c0-0.01 0-0.03 0-0.04c0.04 0 0.08 0 0.12 0c0-0.01 0-0.03 0-0.04c0.05 0 0.11 0 0.16 0c0-0.01 0-0.03 0-0.04c0.03 0 0.05 0 0.08 0c0-0.01 0-0.03 0-0.04c0.08-0.01 0.16-0.03 0.24-0.04c0-0.01 0-0.03 0-0.04c0.05-0.01 0.11-0.03 0.16-0.04c0-0.01 0-0.03 0-0.04c0.12-0.04 0.24-0.08 0.36-0.12c0.01-0.03 0.03-0.05 0.04-0.08c0.05-0.01 0.11-0.03 0.16-0.04c0.01-0.03 0.03-0.05 0.04-0.08c0.03 0 0.05 0 0.08 0c0-0.01 0-0.03 0-0.04c0.03 0 0.05 0 0.08 0c0.03-0.04 0.05-0.08 0.08-0.12c0.03 0 0.05 0 0.08 0c0.01-0.03 0.03-0.05 0.04-0.08c0.03 0 0.05 0 0.08 0c0.04-0.05 0.08-0.11 0.12-0.16c0.03 0 0.05 0 0.08 0c0.12-0.13 0.24-0.27 0.36-0.4c0.09-0.08 0.19-0.16 0.28-0.24c0-0.03 0-0.05 0-0.08c0.05-0.04 0.11-0.08 0.16-0.12c0-0.03 0-0.05 0-0.08c0.03-0.01 0.05-0.03 0.08-0.04c0-0.03 0-0.05 0-0.08c0.04-0.03 0.08-0.05 0.12-0.08c0-0.03 0-0.05 0-0.08c0.01 0 0.03 0 0.04 0c0-0.03 0-0.05 0-0.08c0.03-0.01 0.05-0.03 0.08-0.04c0.01-0.05 0.03-0.11 0.04-0.16c0.03-0.01 0.05-0.03 0.08-0.04c0-0.03 0-0.05 0-0.08c0.01 0 0.03 0 0.04 0c0.01-0.05 0.03-0.11 0.04-0.16c0.01 0 0.03 0 0.04 0c0-0.04 0-0.08 0-0.12c0.01 0 0.03 0 0.04 0c0.01-0.05 0.03-0.11 0.04-0.16c0.01 0 0.03 0 0.04 0c0.01-0.07 0.03-0.13 0.04-0.2c0.01 0 0.03 0 0.04 0c0.01-0.09 0.03-0.19 0.04-0.28c0.01 0 0.03 0 0.04 0c0-0.04 0-0.08 0-0.12c0.01 0 0.03 0 0.04 0c0-0.05 0-0.11 0-0.16c0.01 0 0.03 0 0.04 0c0-0.07 0-0.13 0-0.2c0.01 0 0.03 0 0.04 0c0-0.07 0-0.13 0-0.2c0.01 0 0.03 0 0.04 0c0-0.12 0-0.24 0-0.36c0.1-0.37 0-0.85 0-1.24c0.09-0.07 0.19-0.13 0.28-0.2c0.01-0.04 0.03-0.08 0.04-0.12c0.16-0.13 0.32-0.27 0.48-0.4c0-0.03 0-0.05 0-0.08c0.01 0 0.03 0 0.04 0c0.05-0.07 0.11-0.13 0.16-0.2c0.03 0 0.05 0 0.08 0c0.01-0.03 0.03-0.05 0.04-0.08c0.01 0 0.03 0 0.04 0c0.12-0.15 0.24-0.29 0.36-0.44c0.03 0 0.05 0 0.08 0c0.03-0.04 0.05-0.08 0.08-0.12c0.03-0.01 0.05-0.03 0.08-0.04c0-0.03 0-0.05 0-0.08c0.08-0.07 0.16-0.13 0.24-0.2c0.01-0.03 0.03-0.05 0.04-0.08c0.03 0 0.05 0 0.08 0c0.03-0.04 0.05-0.08 0.08-0.12c0.03-0.01 0.05-0.03 0.08-0.04c0-0.03 0-0.05 0-0.08c0.01 0 0.03 0 0.04 0c0.05-0.07 0.11-0.13 0.16-0.2c0.04 0 0.08 0 0.12 0z" />
			<text id="Dart service manager" style="transform: matrix(1,0,0,1,40,13)" >
				<tspan x="0" y="0" class="t1">DART
</tspan>
				<tspan x="0" y="15" class="t2">SERVICE MANAGER
</tspan>
			</text>
		</g>
	</g>
</svg>